# xmcd
#
# Track frame offsets:
#	150
#	13503
#	26102
#	39077
#	50842
#	65367
#	76642
#	89419
#	104028
#	120367
#	138887
#	151649
#	168241
#	182715
#	194550
#	209220
#	224366
#	238809
#	250362
#	261494
#
# Disc length: 3689 seconds
#
# Revision: 0
# Processed by: cddbd v1.5.2PL0 Copyright (c) Steve Scherf et al.
# Submitted via: EasyCDDAExtractor 16.0.6.1
#
DISCID=1d0e6714
DTITLE=Varios - Neymar Hit's
DYEAR=1900
DGENRE=
TTITLE0=Mc Federado e os Lelex's - Passinho do Volante - Ah Lelek Lek Lek
TTITLE1=Turma do Pagode - Luz Cama e Acao
TTITLE2=Gustavo Lima - Fazer Beber - Part. Neymar
TTITLE3=Dablio - Entao Deixa
TTITLE4=Mc Bola - Ela e Top
TTITLE5=Thiaguinho - Ousadia e Alegria - Part. Neymar
TTITLE6=Luan Santana - Sograo Caprichou
TTITLE7=Grupo Bom Gosto - Pronto Pra Rodopiar
TTITLE8=Naldo - Amor de Chocolate
TTITLE9=Michel Telo - Ai Se Eu Te Pego - Remix
TTITLE10=Bo da Catarina - Clima da Ostentacao
TTITLE11=Samprazer - A Gente se Diverte
TTITLE12=MC Barriga - Garota Mais Mais
TTITLE13=Joao Lucas e Marcelo - Eu Quero Tchu, Eu Quero Tcha
TTITLE14=Mc Pekeno - Sobrevivendo
TTITLE15=Rennan David - E Ai
TTITLE16=Sorriso Maroto - Assim Voce Mata o Papai
TTITLE17=Dablio - As Baladeiras
TTITLE18=Michel Telo - E Nois Faze Parapapa - Part. Sorriso Maroto
TTITLE19=Grupo Revelacao - So Vai de Camarote
EXTD=
EXTT0=
EXTT1=
EXTT2=
EXTT3=
EXTT4=
EXTT5=
EXTT6=
EXTT7=
EXTT8=
EXTT9=
EXTT10=
EXTT11=
EXTT12=
EXTT13=
EXTT14=
EXTT15=
EXTT16=
EXTT17=
EXTT18=
EXTT19=
PLAYORDER=
